<svg width="490" height="150" viewBox="0 0 490 150" fill="none" xmlns="http://www.w3.org/2000/svg">
<rect x="71.418" y="147.125" width="84.7641" height="84.7641" rx="10" transform="rotate(-135 71.418 147.125)" fill="#594C99"/>
<path d="M38.8906 87.728L72.8317 53.7869L99.7018 80.657C103.607 84.5622 103.607 90.8939 99.7018 94.7991L79.9028 114.598C75.9976 118.503 69.6659 118.503 65.7607 114.598L38.8906 87.728Z" fill="#9A8DD9"/>
<path d="M38.8906 87.728L72.8317 53.7869L99.7018 80.657C103.607 84.5622 103.607 90.8939 99.7018 94.7991L79.9028 114.598C75.9976 118.503 69.6659 118.503 65.7607 114.598L38.8906 87.728Z" fill="#9A8DD9"/>
<path d="M66.4691 88.4349C64.5165 86.4823 64.5165 83.3165 66.4691 81.3639V81.3639C68.4217 79.4113 71.5876 79.4113 73.5402 81.3639L79.197 87.0207C81.1497 88.9734 81.1497 92.1392 79.197 94.0918V94.0918C77.2444 96.0444 74.0786 96.0444 72.126 94.0918L66.4691 88.4349Z" fill="#DEDAF2"/>
<path d="M38.8906 87.728L65.7607 114.598C69.6659 118.503 75.9976 118.503 79.9028 114.598L99.7018 94.7991C103.607 90.8939 103.607 84.5622 99.7018 80.657L72.8317 53.7869" stroke="#DEDAF2" stroke-width="6"/>
<path d="M98.2867 28.3311L85.5588 15.6031C78.5293 8.5737 67.1324 8.5737 60.1029 15.6031V15.6031C53.0735 22.6326 53.0735 34.0295 60.1029 41.059L72.8308 53.7869" stroke="#DEDAF2" stroke-width="6"/>
<path d="M176.239 96.56C172.879 96.56 170.382 95.6733 168.749 93.9C167.162 92.08 166.439 89.42 166.579 85.92C166.579 85.5 166.765 85.29 167.139 85.29H171.059C171.385 85.29 171.549 85.4767 171.549 85.85C171.549 88.0433 171.899 89.6067 172.599 90.54C173.299 91.4733 174.559 91.94 176.379 91.94C178.012 91.94 179.225 91.5667 180.019 90.82C180.859 90.0267 181.279 88.86 181.279 87.32C181.279 86.2 181.022 85.2433 180.509 84.45C179.995 83.6567 179.179 82.91 178.059 82.21L172.109 78.71C170.242 77.6367 168.889 76.4 168.049 75C167.255 73.5533 166.859 71.8033 166.859 69.75C166.859 66.9967 167.652 64.92 169.239 63.52C170.872 62.0733 173.182 61.35 176.169 61.35C179.342 61.35 181.745 62.1667 183.379 63.8C185.059 65.3867 185.805 67.6033 185.619 70.45C185.572 70.87 185.385 71.08 185.059 71.08H181.139C180.999 71.08 180.859 71.0333 180.719 70.94C180.625 70.8467 180.602 70.6133 180.649 70.24C180.695 68.8867 180.345 67.8367 179.599 67.09C178.852 66.3433 177.709 65.97 176.169 65.97C174.722 65.97 173.625 66.2967 172.879 66.95C172.179 67.6033 171.829 68.5367 171.829 69.75C171.829 70.87 172.062 71.78 172.529 72.48C173.042 73.18 173.905 73.9033 175.119 74.65L180.929 78.22C182.842 79.3867 184.195 80.6467 184.989 82C185.782 83.3067 186.179 85.01 186.179 87.11C186.179 90.19 185.339 92.5467 183.659 94.18C181.979 95.7667 179.505 96.56 176.239 96.56ZM200.63 108.95C200.443 108.95 200.303 108.857 200.21 108.67C200.163 108.53 200.187 108.367 200.28 108.18L203.99 95.58L194.19 62.68C194.003 62.1667 194.143 61.91 194.61 61.91H198.88C199.16 61.91 199.37 62.0967 199.51 62.47L204.06 79.13C204.48 80.67 204.877 82.2567 205.25 83.89C205.623 85.4767 205.973 87.0167 206.3 88.51H206.44C206.813 87.0167 207.187 85.4533 207.56 83.82C207.98 82.1867 208.377 80.6233 208.75 79.13L213.16 62.47C213.3 62.0967 213.533 61.91 213.86 61.91H217.99C218.457 61.91 218.597 62.1667 218.41 62.68L205.18 108.46C205.133 108.787 204.923 108.95 204.55 108.95H200.63ZM236.592 96.56C233.232 96.56 230.735 95.6733 229.102 93.9C227.515 92.08 226.792 89.42 226.932 85.92C226.932 85.5 227.118 85.29 227.492 85.29H231.412C231.738 85.29 231.902 85.4767 231.902 85.85C231.902 88.0433 232.252 89.6067 232.952 90.54C233.652 91.4733 234.912 91.94 236.732 91.94C238.365 91.94 239.578 91.5667 240.372 90.82C241.212 90.0267 241.632 88.86 241.632 87.32C241.632 86.2 241.375 85.2433 240.862 84.45C240.348 83.6567 239.532 82.91 238.412 82.21L232.462 78.71C230.595 77.6367 229.242 76.4 228.402 75C227.608 73.5533 227.212 71.8033 227.212 69.75C227.212 66.9967 228.005 64.92 229.592 63.52C231.225 62.0733 233.535 61.35 236.522 61.35C239.695 61.35 242.098 62.1667 243.732 63.8C245.412 65.3867 246.158 67.6033 245.972 70.45C245.925 70.87 245.738 71.08 245.412 71.08H241.492C241.352 71.08 241.212 71.0333 241.072 70.94C240.978 70.8467 240.955 70.6133 241.002 70.24C241.048 68.8867 240.698 67.8367 239.952 67.09C239.205 66.3433 238.062 65.97 236.522 65.97C235.075 65.97 233.978 66.2967 233.232 66.95C232.532 67.6033 232.182 68.5367 232.182 69.75C232.182 70.87 232.415 71.78 232.882 72.48C233.395 73.18 234.258 73.9033 235.472 74.65L241.282 78.22C243.195 79.3867 244.548 80.6467 245.342 82C246.135 83.3067 246.532 85.01 246.532 87.11C246.532 90.19 245.692 92.5467 244.012 94.18C242.332 95.7667 239.858 96.56 236.592 96.56Z" fill="#DEDAF2"/>
<path d="M272.325 96C272.045 96 271.835 95.7433 271.695 95.23C271.648 94.5767 271.555 93.62 271.415 92.36C271.321 91.0533 271.275 89.9333 271.275 89L270.995 87.81V71.64C270.995 69.54 270.668 68.0933 270.015 67.3C269.408 66.46 268.218 66.04 266.445 66.04C263.318 66.04 261.825 67.5333 261.965 70.52C261.965 70.9867 261.778 71.22 261.405 71.22H257.765C257.298 71.22 257.041 70.87 256.995 70.17C256.761 67.4167 257.485 65.27 259.165 63.73C260.845 62.1433 263.318 61.35 266.585 61.35C269.898 61.35 272.301 62.1433 273.795 63.73C275.288 65.27 276.035 67.86 276.035 71.5V87.6C276.035 89.42 276.058 90.96 276.105 92.22C276.198 93.48 276.268 94.4833 276.315 95.23C276.408 95.7433 276.245 96 275.825 96H272.325ZM262.595 96.56C260.448 96.56 258.791 95.7667 257.625 94.18C256.458 92.5933 255.875 90.3067 255.875 87.32C255.875 84.0067 256.715 81.44 258.395 79.62C260.075 77.7533 262.898 76.61 266.865 76.19L271.765 75.7V79.76L267.145 80.25C264.905 80.4833 263.295 81.1367 262.315 82.21C261.381 83.2367 260.915 84.8233 260.915 86.97C260.915 88.5567 261.171 89.77 261.685 90.61C262.198 91.45 262.968 91.87 263.995 91.87C265.115 91.87 266.258 91.4733 267.425 90.68C268.591 89.8867 270.085 88.4167 271.905 86.27L272.045 90.75C270.271 92.8033 268.661 94.2967 267.215 95.23C265.815 96.1167 264.275 96.56 262.595 96.56ZM297.998 109.51C293.845 109.51 290.835 108.787 288.968 107.34C287.102 105.893 286.168 103.747 286.168 100.9C286.168 98.8933 286.612 97.19 287.498 95.79C288.432 94.39 289.762 93.2467 291.488 92.36L295.128 94.04C293.915 94.5067 292.958 95.2767 292.258 96.35C291.605 97.4233 291.278 98.66 291.278 100.06C291.278 101.833 291.792 103.093 292.818 103.84C293.892 104.587 295.688 104.96 298.208 104.96C300.915 104.96 302.782 104.54 303.808 103.7C304.882 102.86 305.418 101.507 305.418 99.64C305.418 98.0533 305.092 96.8867 304.438 96.14C303.832 95.3933 302.782 94.9733 301.288 94.88L293.518 94.39C291.838 94.25 290.485 93.6667 289.458 92.64C288.478 91.5667 287.988 90.1433 287.988 88.37C287.988 86.6433 288.455 85.29 289.388 84.31C290.368 83.2833 291.418 82.3967 292.538 81.65L295.688 83.68C294.708 84.0067 293.938 84.4967 293.378 85.15C292.865 85.7567 292.608 86.4567 292.608 87.25C292.608 87.9967 292.842 88.6033 293.308 89.07C293.775 89.5367 294.545 89.8167 295.618 89.91L302.898 90.47C305.465 90.6567 307.355 91.52 308.568 93.06C309.782 94.6 310.388 96.8867 310.388 99.92C310.388 103.233 309.408 105.66 307.448 107.2C305.488 108.74 302.338 109.51 297.998 109.51ZM298.488 84.8C295.082 84.8 292.562 83.8667 290.928 82C289.342 80.0867 288.548 77.1 288.548 73.04C288.548 68.98 289.342 66.0167 290.928 64.15C292.515 62.2833 295.058 61.35 298.558 61.35C302.012 61.35 304.508 62.2833 306.048 64.15C307.635 66.0167 308.428 69.0033 308.428 73.11C308.428 77.17 307.635 80.1333 306.048 82C304.462 83.8667 301.942 84.8 298.488 84.8ZM298.488 80.18C300.402 80.18 301.708 79.6667 302.408 78.64C303.155 77.5667 303.528 75.7233 303.528 73.11C303.528 70.45 303.155 68.5833 302.408 67.51C301.708 66.4367 300.402 65.9 298.488 65.9C296.622 65.9 295.315 66.4367 294.568 67.51C293.868 68.5833 293.518 70.45 293.518 73.11C293.518 75.7233 293.868 77.5667 294.568 78.64C295.315 79.6667 296.622 80.18 298.488 80.18ZM305.138 64.78L301.148 62.89C301.288 60.7433 301.452 58.9233 301.638 57.43C301.872 55.89 302.082 54.6067 302.268 53.58C302.362 53.0667 302.548 52.81 302.828 52.81H306.328C306.748 52.81 306.912 53.02 306.818 53.44C306.492 54.8867 306.188 56.45 305.908 58.13C305.628 59.81 305.372 62.0267 305.138 64.78ZM337.857 96C337.484 96 337.297 95.79 337.297 95.37V71.36C337.297 69.4933 336.947 68.14 336.247 67.3C335.594 66.46 334.567 66.04 333.167 66.04C331.861 66.04 330.554 66.4833 329.247 67.37C327.941 68.2567 326.401 69.6567 324.627 71.57L324.417 67.23C326.191 65.2233 327.894 63.7533 329.527 62.82C331.161 61.84 332.911 61.35 334.777 61.35C337.251 61.35 339.117 62.1667 340.377 63.8C341.684 65.3867 342.337 67.8133 342.337 71.08V95.37C342.337 95.79 342.151 96 341.777 96H337.857ZM320.917 96C320.544 96 320.357 95.79 320.357 95.37V70.38C320.357 68.6533 320.334 67.1367 320.287 65.83C320.241 64.5233 320.171 63.4967 320.077 62.75C320.031 62.19 320.194 61.91 320.567 61.91H324.067C324.441 61.91 324.651 62.12 324.697 62.54C324.837 63.38 324.954 64.5 325.047 65.9C325.141 67.2533 325.211 68.3267 325.257 69.12L325.397 70.03V95.37C325.397 95.79 325.211 96 324.837 96H320.917ZM364.999 96.56C361.312 96.56 358.512 95.5567 356.599 93.55C354.732 91.4967 353.799 88.4167 353.799 84.31V73.67C353.799 69.5167 354.732 66.4367 356.599 64.43C358.465 62.3767 361.265 61.35 364.999 61.35C368.732 61.35 371.532 62.3767 373.399 64.43C375.265 66.4367 376.199 69.5167 376.199 73.67V84.31C376.199 88.4167 375.265 91.4967 373.399 93.55C371.532 95.5567 368.732 96.56 364.999 96.56ZM364.999 91.87C367.192 91.87 368.755 91.24 369.689 89.98C370.669 88.72 371.159 86.7367 371.159 84.03V73.95C371.159 71.1967 370.669 69.19 369.689 67.93C368.755 66.67 367.192 66.04 364.999 66.04C362.852 66.04 361.289 66.67 360.309 67.93C359.329 69.19 358.839 71.1967 358.839 73.95V84.03C358.839 86.7367 359.329 88.72 360.309 89.98C361.289 91.24 362.852 91.87 364.999 91.87ZM396.361 96.56C393.001 96.56 390.505 95.6733 388.871 93.9C387.285 92.08 386.561 89.42 386.701 85.92C386.701 85.5 386.888 85.29 387.261 85.29H391.181C391.508 85.29 391.671 85.4767 391.671 85.85C391.671 88.0433 392.021 89.6067 392.721 90.54C393.421 91.4733 394.681 91.94 396.501 91.94C398.135 91.94 399.348 91.5667 400.141 90.82C400.981 90.0267 401.401 88.86 401.401 87.32C401.401 86.2 401.145 85.2433 400.631 84.45C400.118 83.6567 399.301 82.91 398.181 82.21L392.231 78.71C390.365 77.6367 389.011 76.4 388.171 75C387.378 73.5533 386.981 71.8033 386.981 69.75C386.981 66.9967 387.775 64.92 389.361 63.52C390.995 62.0733 393.305 61.35 396.291 61.35C399.465 61.35 401.868 62.1667 403.501 63.8C405.181 65.3867 405.928 67.6033 405.741 70.45C405.695 70.87 405.508 71.08 405.181 71.08H401.261C401.121 71.08 400.981 71.0333 400.841 70.94C400.748 70.8467 400.725 70.6133 400.771 70.24C400.818 68.8867 400.468 67.8367 399.721 67.09C398.975 66.3433 397.831 65.97 396.291 65.97C394.845 65.97 393.748 66.2967 393.001 66.95C392.301 67.6033 391.951 68.5367 391.951 69.75C391.951 70.87 392.185 71.78 392.651 72.48C393.165 73.18 394.028 73.9033 395.241 74.65L401.051 78.22C402.965 79.3867 404.318 80.6467 405.111 82C405.905 83.3067 406.301 85.01 406.301 87.11C406.301 90.19 405.461 92.5467 403.781 94.18C402.101 95.7667 399.628 96.56 396.361 96.56ZM426.768 96.56C423.968 96.56 421.961 95.79 420.748 94.25C419.581 92.6633 418.998 90.0967 418.998 86.55V66.53H415.008C414.634 66.53 414.448 66.3433 414.448 65.97V62.54C414.448 62.12 414.634 61.91 415.008 61.91H419.068L419.698 53.44C419.744 53.0667 419.954 52.88 420.328 52.88H423.478C423.804 52.88 423.968 53.0667 423.968 53.44L424.038 61.91H431.948C432.368 61.91 432.578 62.12 432.578 62.54V65.97C432.578 66.3433 432.368 66.53 431.948 66.53H424.038V86.41C424.038 88.4167 424.318 89.84 424.878 90.68C425.484 91.52 426.488 91.94 427.888 91.94C428.634 91.94 429.358 91.8467 430.058 91.66C430.804 91.4733 431.458 91.2867 432.018 91.1C432.438 90.8667 432.648 91.0067 432.648 91.52V94.95C432.648 95.37 432.484 95.6033 432.158 95.65C431.458 95.93 430.641 96.14 429.708 96.28C428.821 96.4667 427.841 96.56 426.768 96.56ZM443.196 96C442.822 96 442.636 95.79 442.636 95.37V62.54C442.636 62.12 442.822 61.91 443.196 61.91H447.116C447.489 61.91 447.676 62.12 447.676 62.54V95.37C447.676 95.79 447.489 96 447.116 96H443.196ZM445.226 55.89C444.106 55.89 443.266 55.5867 442.706 54.98C442.146 54.3733 441.866 53.5567 441.866 52.53V51.9C441.866 50.8733 442.146 50.0567 442.706 49.45C443.266 48.8433 444.106 48.54 445.226 48.54C446.346 48.54 447.162 48.8433 447.676 49.45C448.236 50.0567 448.516 50.8733 448.516 51.9V52.53C448.516 53.5567 448.236 54.3733 447.676 54.98C447.162 55.5867 446.346 55.89 445.226 55.89ZM470.324 96.56C466.591 96.56 463.791 95.5333 461.924 93.48C460.057 91.4267 459.124 88.3467 459.124 84.24V73.74C459.124 69.6333 460.057 66.5533 461.924 64.5C463.837 62.4 466.637 61.35 470.324 61.35C472.564 61.35 474.454 61.7467 475.994 62.54C477.581 63.3333 478.771 64.4767 479.564 65.97C480.357 67.4633 480.707 69.26 480.614 71.36C480.614 72.1067 480.404 72.48 479.984 72.48H476.274C475.901 72.48 475.714 72.2 475.714 71.64C475.807 69.8667 475.364 68.49 474.384 67.51C473.451 66.53 472.097 66.04 470.324 66.04C468.224 66.04 466.661 66.67 465.634 67.93C464.654 69.1433 464.164 71.1733 464.164 74.02V83.96C464.164 86.7133 464.654 88.72 465.634 89.98C466.661 91.24 468.224 91.87 470.324 91.87C472.097 91.87 473.427 91.4033 474.314 90.47C475.247 89.49 475.691 88.1133 475.644 86.34C475.644 85.7333 475.831 85.43 476.204 85.43H479.984C480.357 85.43 480.544 85.6633 480.544 86.13C480.544 89.49 479.681 92.08 477.954 93.9C476.227 95.6733 473.684 96.56 470.324 96.56Z" fill="#9A8DD9"/>
</svg>
