<svg fill="none" height="24" viewBox="0 0 24 24" width="24" xmlns="http://www.w3.org/2000/svg"><g fill="#000001"><path d="m12.1255 17.9484 4.5508-2.6268c.0776-.0449.1732-.0449.2511 0l4.061 2.3442c.1674.0966.1674.3381 0 .4348l-8.8629 5.1157c-.0776.0449-.1734.0449-.251 0l-9.74908-5.6273c-.07759-.0449-.12542-.1278-.12542-.2173v-11.25462c0-.08957.04783-.17234.12542-.21727l8.86298-5.115836c.1673-.09656.3767.024212.3767.217336v4.68843c0 .08946-.0478.17234-.1256.21717l-4.55079 2.62684c-.07757.04496-.12572.12773-.12572.2173v5.98675c0 .0894.04815.1723.12572.2173l5.18579 2.9933c.0776.0449.1734.0449.251 0z"/><path d="m12.7605 5.90732 4.5508 2.62673c.0775.04497.1254.12782.1254.21731v5.25354c0 .0896.0481.1725.1257.2173l4.061 2.3442c.1674.0967.3766-.0242.3766-.2172v-10.23203c0-.08957-.0479-.17234-.1255-.21727l-8.8629-5.115837c-.1674-.096561-.3768.024212-.3768.217337v4.68865c0 .08946.0479.17234.1257.21727z"/><path d="m9.86609 8.47336h.92401v2.72474l2.6609-2.72474h1.2198l-2.9196 3.00214 3.1042 3.4641h-1.1825l-2.8828-3.233v3.233h-.92401z"/></g></svg>