<?xml version="1.0" encoding="UTF-8" standalone="no"?>
<svg
   width="64.004707"
   height="37.857563"
   version="1.1"
   id="svg13"
   xmlns="http://www.w3.org/2000/svg"
   xmlns:svg="http://www.w3.org/2000/svg">
  <defs
     id="defs13" />
  <g
     transform="matrix(1.163595,0,0,1.163595,-69.821518,-15.965687)"
     id="g13">
    <path
       d="m 82.045,28.903 -1.257,-0.32 -0.638,-0.135 -0.64,-0.125 -0.318,-0.054 -0.323,-0.043 -0.652,-0.08 -0.65,-0.062 -0.656,-0.048 -1.32,-0.054 -0.663,-0.012 -0.665,-0.003 -1.33,0.02 -0.673,0.03 -0.657,0.05 -0.663,0.07 -0.664,0.084 -1.328,0.212 -1.332,0.256 -2.672,0.584 -1.322,0.353 -0.672,0.214 0.25,0.066 c 0.3,0.07 0.638,0.1 0.974,0.156 l 0.513,0.077 0.253,0.047 0.1,0.016 0.115,0.013 c 0.312,0.03 0.64,0.02 0.967,0.006 l 2,-0.188 1.016,-0.067 0.505,0.006 0.5,0.01 1.014,0.038 0.08,-0.023 0.083,-0.022 0.1,-0.022 0.18,-0.04 0.354,-0.052 0.696,-0.046 1.355,0.006 1.33,0.045 1.32,0.13 a 7.92,7.92 0 0 0 1.315,0.048 l 0.486,-0.026 -0.46,0.14 c -0.317,0.096 -0.64,0.132 -0.962,0.166 l -0.97,0.067 -1.96,0.026 -0.783,-0.033 -0.632,0.02 -0.64,0.056 -0.306,0.05 -0.146,0.035 -0.072,0.02 -0.078,0.023 a 4.67,4.67 0 0 0 -0.584,0.209 l -0.103,0.05 0.235,0.086 a 7.38,7.38 0 0 0 0.62,0.16 l 0.64,0.122 0.324,0.048 0.318,0.036 c 0.428,0.042 0.86,0.06 1.294,0.054 l 1.296,-0.064 a 23.64,23.64 0 0 0 2.561,-0.374 l 1.254,-0.284 0.3,-0.08 0.306,-0.083 0.604,-0.173 1.2,-0.4 1.246,-0.333 0.034,-0.053 c 0.038,-0.093 -0.015,-0.2 -0.134,-0.286 A 1.5,1.5 0 0 0 82.641,29.106 5.55,5.55 0 0 0 82.04,28.893 Z m 8.273,2.98 0.52,0.355 0.263,0.175 0.27,0.174 1.1,0.665 c 0.746,0.43 1.52,0.818 2.312,1.164 l 1.2,0.47 a 11.49,11.49 0 0 0 1.246,0.357 l 0.314,0.066 0.323,0.057 0.646,0.086 0.638,0.044 0.25,-0.007 -0.082,-0.08 A 4.6,4.6 0 0 0 98.83,35.026 l -0.067,-0.047 -0.062,-0.04 -0.128,-0.08 -0.274,-0.145 -0.6,-0.255 -0.592,-0.217 -0.755,-0.217 -1.852,-0.642 -0.9,-0.37 c -0.295,-0.134 -0.6,-0.27 -0.86,-0.46 l -0.392,-0.277 0.453,0.178 c 0.407,0.16 0.83,0.28 1.263,0.37 l 1.293,0.293 1.277,0.378 1.287,0.422 0.645,0.264 0.32,0.16 0.16,0.093 0.08,0.05 0.14,0.094 0.015,0.004 0.96,0.28 0.478,0.147 0.48,0.154 a 12.48,12.48 0 0 1 0.943,0.385 l 1.83,0.806 c 0.307,0.118 0.613,0.23 0.92,0.3 l 0.113,0.024 0.1,0.02 0.255,0.035 0.512,0.1 0.973,0.16 0.258,0.016 -0.57,-0.414 -1.143,-0.752 -2.35,-1.398 -1.183,-0.663 -1.193,-0.62 -0.604,-0.3 -0.607,-0.276 -0.607,-0.256 -0.63,-0.24 -1.256,-0.44 -0.632,-0.207 -0.633,-0.198 -1.27,-0.366 -0.638,-0.162 -0.636,-0.146 -0.644,-0.13 -0.32,-0.06 -0.32,-0.05 -0.647,-0.084 -0.648,-0.073 -1.293,-0.092 a 5.43,5.43 0 0 0 -0.637,0.012 1.56,1.56 0 0 0 -0.243,0.043 c -0.144,0.054 -0.225,0.13 -0.218,0.23 l 0.016,0.06 c 0.376,0.213 0.734,0.457 1.077,0.7 l 1.023,0.75 z"
       opacity="0.7"
       fill="#ffffff"
       id="path1" />
    <path
       d="m 72.887,27.754 c -1.93,0.03 -3.76,0.34 -5.67,0.728 -1.368,0.278 -3.82,0.808 -5.092,1.362 0.536,0.5 1.833,0.492 2.58,0.634 1.214,0.23 3.227,-0.278 4.494,-0.29 l 2.58,0.04 c -0.16,0.023 -0.312,0.052 -0.447,0.09 -0.294,0.082 -1.197,0.334 -1.144,0.622 0.062,0.33 1.58,0.6 1.878,0.654 2.32,0.417 5.217,-0.068 7.585,-0.726 1.28,-0.355 2.058,-0.802 3.31,-1.293 a 10.99,10.99 0 0 0 -1.246,0.333 l -1.21,0.4 -0.604,0.173 -0.306,0.083 -0.3,0.08 -1.254,0.284 a 23.64,23.64 0 0 1 -2.561,0.374 l -1.296,0.064 C 73.75,31.371 73.318,31.353 72.89,31.312 l -0.318,-0.036 -0.324,-0.048 -0.64,-0.122 -0.62,-0.16 -0.235,-0.086 0.103,-0.05 a 4.65,4.65 0 0 1 0.584,-0.209 l 0.078,-0.023 0.072,-0.02 0.146,-0.035 0.306,-0.05 0.64,-0.056 0.632,-0.02 0.783,0.033 1.96,-0.026 0.97,-0.067 c 0.323,-0.034 0.645,-0.07 0.962,-0.166 l 0.46,-0.14 -0.486,0.026 c -0.436,0.022 -0.876,0.002 -1.315,-0.048 l -1.32,-0.13 -1.33,-0.045 -1.355,-0.006 -0.696,0.046 -0.354,0.052 -0.18,0.04 -0.1,0.022 -0.083,0.022 -0.08,0.023 h -0.016 l -0.998,-0.037 -0.5,-0.01 -0.505,-0.006 c -0.344,0.006 -0.68,0.035 -1.016,0.067 l -2,0.188 c -0.328,0.015 -0.655,0.024 -0.967,-0.006 l -0.115,-0.013 -0.1,-0.016 -0.253,-0.047 -0.513,-0.077 -0.974,-0.156 -0.25,-0.066 0.672,-0.214 1.322,-0.353 2.672,-0.584 1.332,-0.256 1.328,-0.212 0.664,-0.084 0.663,-0.07 0.657,-0.05 0.673,-0.03 1.33,-0.02 h 0.665 l 0.663,0.012 1.32,0.054 0.656,0.048 0.65,0.062 0.652,0.08 0.323,0.043 0.318,0.054 0.64,0.125 0.638,0.135 1.257,0.32 0.6,0.213 a 1.54,1.54 0 0 1 0.217,0.117 c -0.65,-0.525 -3.264,-1.056 -3.732,-1.132 -1.96,-0.32 -4.26,-0.38 -6.242,-0.348 z"
       opacity="0.5"
       fill="#e1eef4"
       id="path2" />
    <path
       d="m 83.14,29.3 c -0.028,-0.062 -0.07,-0.1 -0.114,-0.152 -0.088,-0.083 -0.185,-0.146 -0.283,-0.204 a 4.53,4.53 0 0 0 -0.606,-0.289 c -0.414,-0.166 -0.836,-0.298 -1.26,-0.42 l -1.3,-0.318 -0.33,-0.067 -0.33,-0.052 -0.658,-0.093 -0.668,-0.077 -0.666,-0.06 -1.338,-0.08 -0.67,-0.026 -0.673,-0.016 -1.355,-0.006 -0.674,0.016 -0.7,0.04 -0.682,0.06 -0.68,0.082 -1.356,0.208 -1.35,0.25 -1.348,0.282 -1.35,0.316 -1.35,0.367 -1.348,0.475 -0.43,0.184 0.34,0.3 c 0.167,0.147 0.354,0.24 0.536,0.3 l 0.54,0.15 a 10.62,10.62 0 0 0 1.041,0.145 l 0.495,0.055 0.247,0.037 0.142,0.017 0.138,0.01 a 6.84,6.84 0 0 0 1.056,-0.028 l 2.004,-0.28 0.975,-0.1 1,-0.03 0.265,-0.003 c -0.07,0.034 -0.14,0.073 -0.212,0.125 a 0.74,0.74 0 0 0 -0.201,0.207 0.47,0.47 0 0 0 -0.07,0.2 c -0.003,0.02 -0.002,0.042 0,0.065 l 0.003,0.033 0.002,0.016 0.005,0.026 0.003,0.01 a 1.14,1.14 0 0 0 0.012,0.038 c 0.012,0.032 0.02,0.048 0.03,0.065 0.08,0.134 0.16,0.183 0.226,0.232 a 1.51,1.51 0 0 0 0.194,0.108 3.77,3.77 0 0 0 0.355,0.14 l 0.684,0.187 0.68,0.14 0.342,0.055 0.348,0.044 a 11.67,11.67 0 0 0 1.383,0.06 l 1.36,-0.078 0.67,-0.077 0.663,-0.104 1.303,-0.26 1.276,-0.323 0.315,-0.1 0.04,-0.012 0.044,-0.014 0.23,-0.075 c 0.202,-0.06 0.413,-0.147 0.618,-0.226 0.403,-0.168 0.787,-0.36 1.157,-0.568 l 1.1,-0.645 c -1.25,0.5 -2.03,0.937 -3.3,1.293 -2.368,0.657 -5.266,1.143 -7.585,0.726 -0.297,-0.054 -1.816,-0.325 -1.878,-0.654 -0.053,-0.288 0.85,-0.54 1.144,-0.622 a 3.79,3.79 0 0 1 0.447,-0.09 l -2.58,-0.04 c -1.267,0.012 -3.28,0.52 -4.494,0.3 -0.746,-0.142 -2.043,-0.144 -2.58,-0.634 1.27,-0.554 3.723,-1.084 5.092,-1.362 1.9,-0.387 3.738,-0.698 5.67,-0.728 1.98,-0.03 4.28,0.028 6.243,0.348 0.468,0.076 3.082,0.607 3.732,1.132 l 0.047,0.03 a 0.43,0.43 0 0 1 0.092,0.09 c 0.01,0.016 0.02,0.03 0.02,0.046 0.006,0.023 -0.001,0.042 -0.003,0.052 l 0.128,0.04 c 0.005,-0.014 0.01,-0.018 0.014,-0.042 0.004,-0.024 0.007,-0.04 0.006,-0.058 -10e-4,-0.037 -0.012,-0.072 -0.027,-0.103 z m 24.917,7.684 c -0.364,-0.324 -0.744,-0.605 -1.13,-0.876 l -1.166,-0.775 -1.182,-0.727 -1.2,-0.693 -1.202,-0.663 -1.22,-0.625 -0.62,-0.292 -0.63,-0.273 -0.64,-0.255 -0.635,-0.228 -1.288,-0.42 -0.643,-0.197 -0.645,-0.188 -1.295,-0.345 -0.65,-0.152 -0.658,-0.137 -0.653,-0.12 -0.33,-0.056 -0.335,-0.04 -1.324,-0.105 -1.328,-0.001 a 4.62,4.62 0 0 0 -0.667,0.083 1.58,1.58 0 0 0 -0.333,0.104 0.51,0.51 0 0 0 -0.157,0.108 0.27,0.27 0 0 0 -0.058,0.09 0.22,0.22 0 0 0 -0.012,0.057 c -0.002,0.022 0,0.028 0,0.044 l 0.134,0.002 c 0.001,-0.01 0.001,-0.032 0.005,-0.034 0.017,-0.03 0.028,-0.043 0.043,-0.054 a 0.44,0.44 0 0 1 0.117,-0.057 c 0.017,-0.006 0.036,-0.01 0.054,-0.013 0.783,-0.293 3.43,0.028 3.898,0.104 1.962,0.316 4.163,0.986 6.033,1.64 1.823,0.638 3.46,1.5 5.15,2.48 1.2,0.695 3.37,1.972 4.4,2.9 -0.663,0.296 -1.895,-0.1 -2.647,-0.213 -1.225,-0.165 -2.974,-1.282 -4.173,-1.694 l -2.46,-0.777 a 3.72,3.72 0 0 1 0.396,0.226 c 0.252,0.17 1.03,0.694 0.9,0.95 -0.163,0.293 -1.7,0.07 -2,0.028 -2.332,-0.336 -4.93,-1.7 -6.968,-3.082 -1.103,-0.742 -1.7,-1.4 -2.732,-2.272 l 0.832,0.956 a 11.38,11.38 0 0 0 0.918,0.905 l 0.515,0.4 0.232,0.17 0.034,0.023 0.27,0.184 1.108,0.7 1.155,0.66 0.596,0.308 0.612,0.285 1.266,0.503 c 0.434,0.148 0.877,0.28 1.332,0.38 l 0.344,0.067 0.342,0.055 0.7,0.082 0.708,0.038 a 3.16,3.16 0 0 0 0.381,-0.019 1.56,1.56 0 0 0 0.217,-0.041 c 0.08,-0.025 0.17,-0.047 0.288,-0.148 a 0.56,0.56 0 0 0 0.05,-0.053 l 0.022,-0.032 0.006,-0.008 0.014,-0.022 0.007,-0.014 0.013,-0.03 c 0.01,-0.02 0.016,-0.04 0.02,-0.06 0.022,-0.085 0.013,-0.16 0,-0.22 -0.03,-0.12 -0.08,-0.195 -0.126,-0.26 A 1.47,1.47 0 0 0 99.9,35.059 l 0.252,0.087 0.93,0.343 a 12.03,12.03 0 0 1 0.89,0.41 l 1.813,0.897 a 6.65,6.65 0 0 0 0.994,0.36 l 0.134,0.033 0.14,0.03 0.247,0.043 0.486,0.105 1.034,0.192 a 3.5,3.5 0 0 0 0.56,0.027 1.71,1.71 0 0 0 0.607,-0.125 l 0.417,-0.178 z"
       fill="#293644"
       id="path3" />
    <path
       d="m 97.917,35.777 c 0.3,0.043 1.827,0.265 1.99,-0.028 0.14,-0.256 -0.637,-0.78 -0.89,-0.95 a 3.72,3.72 0 0 0 -0.396,-0.226 l 2.46,0.777 c 1.198,0.41 2.948,1.53 4.173,1.694 0.752,0.1 1.984,0.51 2.647,0.213 -1.03,-0.927 -3.19,-2.204 -4.4,-2.9 -1.69,-0.97 -3.327,-1.842 -5.15,-2.48 -1.87,-0.654 -4.07,-1.324 -6.033,-1.64 C 91.85,30.162 89.202,29.84 88.42,30.133 A 1.61,1.61 0 0 1 88.663,30.09 5.39,5.39 0 0 1 89.3,30.078 l 1.293,0.092 0.648,0.073 0.647,0.084 0.32,0.05 0.32,0.06 0.644,0.13 0.636,0.146 0.638,0.162 1.27,0.366 0.633,0.198 0.632,0.207 1.256,0.44 0.63,0.24 0.607,0.256 0.607,0.276 0.603,0.29 1.193,0.62 1.183,0.663 2.35,1.398 1.143,0.752 0.57,0.414 -0.258,-0.016 c -0.315,-0.03 -0.64,-0.096 -0.973,-0.16 l -0.512,-0.09 -0.255,-0.035 -0.11,-0.02 -0.113,-0.024 c -0.306,-0.07 -0.613,-0.182 -0.92,-0.3 l -1.83,-0.806 -0.943,-0.385 -0.48,-0.154 -0.478,-0.147 -0.96,-0.28 -0.015,-0.004 -0.07,-0.047 -0.07,-0.047 -0.08,-0.05 -0.16,-0.093 -0.32,-0.16 -0.645,-0.264 -1.287,-0.422 -1.277,-0.378 -1.293,-0.293 c -0.432,-0.1 -0.856,-0.2 -1.263,-0.37 l -0.453,-0.178 0.392,0.277 c 0.27,0.19 0.565,0.327 0.86,0.46 l 0.9,0.37 1.852,0.642 0.755,0.217 0.592,0.217 0.6,0.255 0.274,0.145 0.128,0.08 0.062,0.04 0.067,0.047 a 4.6,4.6 0 0 1 0.488,0.383 l 0.082,0.08 -0.25,0.007 a 7.17,7.17 0 0 1 -0.638,-0.044 l -0.646,-0.086 -0.323,-0.057 -0.314,-0.066 c -0.42,-0.096 -0.835,-0.215 -1.246,-0.357 l -1.2,-0.47 a 23.59,23.59 0 0 1 -2.312,-1.164 l -1.1,-0.665 -0.27,-0.174 -0.263,-0.175 -0.52,-0.355 -1.023,-0.752 a 10.97,10.97 0 0 0 -1.077,-0.709 c 1.03,0.86 1.63,1.53 2.732,2.272 2.04,1.37 4.636,2.746 6.968,3.082 z"
       opacity="0.5"
       fill="#e1eef4"
       id="path4" />
    <path
       d="m 80.963,31.573 c -0.03,0.764 0.427,1.484 0.86,2.12 0.643,0.942 0.3,2.166 0.327,3.18 0.04,1.577 -0.54,7.84 0.803,9.324 l 0.005,0.002 c 1.707,-0.716 3.095,-6.66 3.634,-8.122 0.347,-0.94 0.413,-2.53 1.32,-3.16 0.673,-0.467 1.602,-0.96 1.765,-1.8 l -4.017,-4.1 c 0,0 -4.697,2.517 -4.7,2.567 z"
       fill="#d4dfe5"
       id="path5" />
    <path
       d="m 89.045,33.113 -0.333,0.15 c 0.142,-0.1 0.28,-0.186 0.412,-0.296 0.148,-0.124 -0.128,-0.267 -0.237,-0.242 l -0.564,0.147 a 1.79,1.79 0 0 0 0.225,-0.379 c 0.063,-0.147 -0.15,-0.234 -0.262,-0.216 -1.174,0.2 -1.982,1 -3.02,1.518 -0.5,0.254 -1.04,0.477 -1.586,0.65 l -0.217,0.063 a 3.36,3.36 0 0 1 -0.424,0.081 c -0.123,0.037 -0.218,-0.007 -0.284,-0.132 0.1,-0.1 0.402,-0.153 0.526,-0.184 0.493,-0.123 0.957,-0.3 1.42,-0.498 a 5.92,5.92 0 0 0 1.151,-0.677 c 0.757,-0.253 1.466,-0.63 2.02,-1.212 0.118,-0.124 -0.2,-0.226 -0.263,-0.216 -0.64,0.1 -1.12,0.417 -1.607,0.828 l -0.47,0.367 -0.926,0.255 c -0.207,0.05 -0.426,0.08 -0.65,0.11 l 0.9,-0.5 c 0.83,-0.442 1.777,-0.72 2.46,-1.39 0.16,-0.156 -0.166,-0.265 -0.28,-0.232 -0.876,0.246 -1.684,0.638 -2.508,1.024 l 2.147,-1.148 c 0.175,-0.1 -0.123,-0.24 -0.254,-0.236 l 0.196,-0.1 c 0.22,-0.113 -0.097,-0.3 -0.246,-0.252 -0.783,0.304 -1.546,0.655 -2.29,1.055 -0.59,0.317 -1.33,0.928 -2.048,1.096 0.41,-0.39 1.037,-0.6 1.51,-0.878 l 2.122,-1.29 c 0.127,-0.08 -0.01,-0.186 -0.143,-0.225 l 0.472,-0.288 c 0.13,-0.08 -0.03,-0.206 -0.168,-0.237 0.05,-0.087 0.067,-0.17 0.02,-0.24 -0.055,-0.08 -0.17,-0.132 -0.263,-0.112 -0.128,0.027 -0.23,0.107 -0.337,0.178 l -1.362,0.82 -1.872,0.844 -0.538,0.163 c -0.093,0.03 -0.095,0.084 -0.056,0.136 l -0.125,0.067 c -0.045,0.026 -0.05,0.09 -0.023,0.134 0.103,0.167 0.28,0.218 0.484,0.207 l -0.525,0.245 c -0.193,0.087 0.024,0.267 0.156,0.267 0.132,0 0.26,-0.022 0.38,-0.06 -0.124,0.107 -0.237,0.226 -0.327,0.37 -0.08,0.126 0.13,0.214 0.218,0.22 a 1.67,1.67 0 0 0 0.254,-0.003 l -0.155,0.11 c -0.167,0.126 0.167,0.297 0.287,0.234 l 0.036,-0.02 0.126,-0.068 -0.047,0.04 c -0.15,0.145 0.13,0.25 0.242,0.245 0.683,-0.033 1.27,-0.44 1.84,-0.765 a 14.13,14.13 0 0 1 1.915,-0.908 c -0.497,0.276 -1.04,0.485 -1.543,0.74 l -1.763,0.915 c -0.27,0.06 -0.526,0.148 -0.756,0.284 -0.192,0.114 0.18,0.264 0.286,0.233 0.23,-0.066 0.452,-0.148 0.668,-0.24 0.342,-0.066 0.705,-0.084 1.027,-0.14 l 0.544,-0.11 c -0.26,0.135 -0.532,0.257 -0.82,0.37 -0.413,0.16 -1.105,0.175 -1.43,0.507 -0.158,0.16 0.077,0.43 0.234,0.493 0.02,0.008 0.04,0.013 0.06,0.02 l -0.176,0.088 c -0.108,0.06 0.01,0.196 0.085,0.22 0.28,0.095 0.552,0.102 0.817,0.06 l -0.618,0.246 c -0.172,0.068 -0.03,0.207 0.114,0.25 -0.373,0.227 -0.628,0.467 -0.395,0.62 0.225,0.148 0.546,0.002 0.757,-0.076 l 0.65,-0.265 -0.082,0.054 c -0.05,0.033 -0.058,0.07 -0.043,0.102 l -0.38,0.217 c -0.074,0.044 -0.06,0.098 -0.01,0.143 -0.38,0.12 -0.753,0.26 -1.03,0.545 -0.125,0.128 0.08,0.235 0.192,0.245 0.483,0.046 0.967,-0.037 1.447,-0.185 -0.07,0.108 0.122,0.207 0.215,0.214 a 2.41,2.41 0 0 0 0.728,-0.067 l -0.118,0.06 a 4.29,4.29 0 0 1 -0.557,0.239 c -0.57,0.153 -1.136,0.314 -1.675,0.553 -0.225,0.1 0.096,0.317 0.25,0.25 0.417,-0.183 0.855,-0.3 1.288,-0.447 l 0.136,-0.04 c -0.543,0.285 -1.08,0.58 -1.578,0.948 -0.18,0.134 0.175,0.267 0.286,0.23 l 0.253,-0.094 c -0.15,0.134 -0.288,0.28 -0.41,0.447 -0.098,0.135 0.18,0.237 0.268,0.215 0.388,-0.096 0.756,-0.232 1.116,-0.387 -0.28,0.24 -0.53,0.512 -0.718,0.836 -0.056,0.097 0.033,0.163 0.13,0.194 l -0.262,0.18 c -0.178,0.125 0.19,0.296 0.32,0.21 l 0.5,-0.336 c 0.286,-0.178 0.585,-0.323 0.917,-0.377 -0.154,0.24 -0.47,0.38 -0.7,0.488 -0.223,0.1 0.095,0.317 0.248,0.25 0.378,-0.168 0.865,-0.397 0.945,-0.856 0.02,-0.117 -0.143,-0.18 -0.228,-0.183 a 2.12,2.12 0 0 0 -0.321,0.018 6.76,6.76 0 0 0 0.563,-0.548 c 0.118,-0.13 -0.218,-0.252 -0.31,-0.202 -0.388,0.213 -0.706,0.598 -1.08,0.855 0.58,-0.647 1.426,-1.064 2.105,-1.563 0.168,-0.125 -0.166,-0.286 -0.282,-0.23 L 83.575,39.1 c 0.638,-0.57 1.505,-0.884 2.2,-1.35 0.146,-0.097 -0.055,-0.214 -0.197,-0.234 l 0.188,-0.104 0.036,-0.02 c 0.1,-0.057 0.043,-0.128 -0.048,-0.177 0.424,-0.2 0.847,-0.43 1.147,-0.74 0.156,-0.16 -0.164,-0.265 -0.282,-0.23 -0.62,0.183 -1.244,0.576 -1.9,0.713 0.65,-0.453 1.42,-0.777 2.13,-1.07 0.228,-0.095 -0.098,-0.3 -0.246,-0.25 -0.63,0.2 -1.24,0.493 -1.856,0.748 -0.53,0.22 -1.126,0.49 -1.722,0.57 0.566,-0.34 1.35,-0.476 1.92,-0.72 l 2.804,-1.34 c 0.147,-0.085 -0.06,-0.214 -0.183,-0.238 l 1.17,-0.635 c 0.224,-0.12 -0.102,-0.29 -0.245,-0.25 l -0.196,0.06 0.99,-0.475 c 0.22,-0.097 -0.095,-0.314 -0.244,-0.25 z m -4.832,-0.82 -1.122,0.618 a 10.37,10.37 0 0 1 1.122,-0.618 z m -0.573,2.52 a 2.03,2.03 0 0 1 -0.404,0.108 l 0.21,-0.07 0.193,-0.038 z m 2.332,-1.06 c 0.66,-0.41 1.298,-0.864 2.025,-1.095 -0.126,0.176 -0.283,0.33 -0.46,0.463 l -1.566,0.633 z m -2.792,2.14 c 0.156,-0.09 0.32,-0.168 0.48,-0.246 l 1.268,-0.554 c 0.785,-0.33 1.528,-0.743 2.283,-1.128 l 0.423,-0.167 -1.976,1.034 -2.478,1.06 z M 86.407,34.905 86.23,35 c 0.007,-0.006 0.023,-0.016 0.04,-0.026 l 0.136,-0.067 z"
       fill="#dfeef6"
       id="path6" />
    <path
       d="m 94.717,37.9 -0.47,-0.458 -1.658,-1.663 -1.098,-1.133 -1.225,-1.275 -1.31,-1.38 -1.354,-1.438 -1.495,-1.604 1,-0.546 0.814,-0.443 0.785,-0.42 1.422,-0.838 c 0.432,-0.278 0.816,-0.555 1.135,-0.828 a 4.95,4.95 0 0 0 0.758,-0.784 2.56,2.56 0 0 0 0.349,-0.616 c 0.03,-0.077 0.047,-0.137 0.058,-0.18 l 0.017,-0.062 -0.02,0.06 c -0.014,0.04 -0.034,0.1 -0.07,0.173 -0.067,0.148 -0.19,0.354 -0.384,0.58 a 4.94,4.94 0 0 1 -0.795,0.715 c -0.332,0.245 -0.726,0.492 -1.17,0.734 l -1.47,0.715 -0.81,0.382 -0.83,0.426 -1.106,0.58 -0.86,-0.915 -0.645,-0.674 -0.64,-0.626 -1.154,-1.157 c -0.34,-0.375 -0.634,-0.737 -0.866,-1.077 a 4.91,4.91 0 0 1 -0.517,-0.936 c -0.11,-0.278 -0.158,-0.512 -0.174,-0.674 -0.01,-0.08 -0.01,-0.144 -0.01,-0.186 v -0.064 l -0.005,0.064 a 1.47,1.47 0 0 0 -0.004,0.188 c 0.004,0.165 0.036,0.406 0.13,0.697 a 4.93,4.93 0 0 0 0.459,0.989 c 0.213,0.363 0.484,0.75 0.802,1.153 l 1.07,1.258 0.604,0.654 0.624,0.685 0.76,0.844 -1.943,1.028 -1.75,0.916 -1.69,0.875 -1.575,0.804 -1.407,0.7 -2.11,1.03 -0.595,0.28 -0.2,0.1 0.223,-0.07 0.628,-0.205 0.966,-0.35 1.24,-0.494 1.452,-0.634 1.607,-0.754 0.718,-0.357 c 0.004,0.135 0.02,0.27 0.05,0.4 0.073,0.327 0.212,0.633 0.374,0.92 0.162,0.287 0.356,0.56 0.524,0.83 a 2.32,2.32 0 0 1 0.279,0.902 c 0.07,0.635 -0.034,1.27 -0.046,1.92 v 0.052 c -0.045,0.032 -0.086,0.064 -0.118,0.096 -0.06,0.058 -0.094,0.118 -0.105,0.16 -0.011,0.042 -0.01,0.067 -0.01,0.067 0,0 0.004,-0.025 0.024,-0.06 0.02,-0.035 0.062,-0.082 0.126,-0.122 0.024,-0.015 0.053,-0.028 0.083,-0.042 l -0.013,0.812 -0.034,0.965 -0.03,3.87 c 0.028,0.647 0.082,1.295 0.192,1.937 0.055,0.32 0.127,0.64 0.23,0.954 0.103,0.314 0.24,0.62 0.466,0.877 l 0.014,0.016 0.02,0.006 0.006,10e-4 0.024,0.006 0.02,-0.01 c 0.313,-0.138 0.547,-0.383 0.75,-0.638 0.203,-0.255 0.37,-0.536 0.527,-0.82 0.31,-0.57 0.56,-1.17 0.792,-1.774 l 0.954,-2.875 0.017,-0.005 -0.005,-0.033 0.23,-0.774 0.282,-0.922 0.155,-0.456 0.132,-0.47 0.037,-0.158 0.096,0.07 0.205,0.15 -0.19,-0.168 -0.1,-0.1 0.182,-0.743 c 0.083,-0.308 0.18,-0.612 0.32,-0.892 0.14,-0.28 0.326,-0.532 0.573,-0.705 l 0.773,-0.526 c 0.253,-0.184 0.498,-0.387 0.696,-0.64 0.092,-0.117 0.17,-0.25 0.23,-0.392 l 0.28,0.285 1.272,1.238 1.164,1.075 1.01,0.873 0.798,0.647 0.527,0.4 0.187,0.14 -0.166,-0.163 z m -8.002,-0.433 -0.13,0.46 -0.156,0.457 -0.286,0.924 -0.18,0.594 c -0.018,-0.048 -0.04,-0.098 -0.07,-0.154 -0.043,-0.078 -0.098,-0.165 -0.17,-0.25 A 1.95,1.95 0 0 0 85.473,39.24 C 85.375,39.16 85.267,39.078 85.148,39.01 85.029,38.942 84.9,38.878 84.766,38.83 a 2.38,2.38 0 0 0 -0.416,-0.114 2.95,2.95 0 0 0 -0.835,-0.035 2.49,2.49 0 0 0 -0.378,0.064 c -0.118,0.03 -0.23,0.06 -0.327,0.104 -0.097,0.044 -0.186,0.083 -0.26,0.128 -0.074,0.045 -0.136,0.086 -0.182,0.128 -0.046,0.042 -0.082,0.073 -0.105,0.097 l -0.035,0.037 0.008,0.01 0.047,-0.017 0.13,-0.045 a 0.95,0.95 0 0 1 0.093,-0.027 l 0.1,-0.028 0.264,-0.047 0.313,-0.03 0.35,-0.004 0.372,0.022 0.38,0.052 0.374,0.08 c 0.122,0.03 0.242,0.064 0.355,0.105 0.227,0.078 0.43,0.2 0.577,0.317 a 1.35,1.35 0 0 1 0.3,0.369 c 0.01,0.014 0.015,0.027 0.022,0.04 l -0.987,2.945 c -0.232,0.6 -0.485,1.194 -0.8,1.755 -0.154,0.28 -0.32,0.553 -0.517,0.8 -0.184,0.232 -0.398,0.446 -0.654,0.57 -0.183,-0.223 -0.306,-0.5 -0.4,-0.784 -0.098,-0.303 -0.168,-0.616 -0.22,-0.932 -0.108,-0.633 -0.154,-1.275 -0.186,-1.917 l 0.01,-3.86 0.03,-0.965 0.003,-0.868 a 2.46,2.46 0 0 1 0.405,-0.101 6.78,6.78 0 0 1 0.907,-0.09 l 0.514,-0.01 0.522,-0.006 0.252,0.005 0.262,0.018 c 0.165,0.01 0.335,0.04 0.496,0.075 0.158,0.042 0.313,0.092 0.453,0.156 0.14,0.064 0.27,0.133 0.386,0.205 l 0.354,0.238 -0.046,0.196 z m 2.614,-3.74 c -0.19,0.24 -0.427,0.44 -0.676,0.62 l -0.77,0.524 c -0.267,0.185 -0.464,0.455 -0.608,0.744 -0.144,0.289 -0.244,0.6 -0.33,0.912 l -0.17,0.692 -0.314,-0.268 c -0.22,-0.177 -0.497,-0.358 -0.823,-0.508 a 3.17,3.17 0 0 0 -0.521,-0.192 c -0.095,-0.03 -0.18,-0.046 -0.27,-0.063 a 2.18,2.18 0 0 0 -0.289,-0.033 c -0.2,-0.01 -0.375,-0.005 -0.556,0.014 l -0.526,0.08 c -0.34,0.067 -0.652,0.147 -0.912,0.244 -0.132,0.05 -0.25,0.103 -0.35,0.158 0.012,-0.628 0.112,-1.26 0.04,-1.908 -0.04,-0.326 -0.126,-0.655 -0.297,-0.948 l -0.525,-0.826 c -0.16,-0.28 -0.294,-0.578 -0.364,-0.89 A 1.87,1.87 0 0 1 81.02,31.646 l 0.882,-0.446 1.752,-0.92 1.752,-0.946 0.278,-0.154 0.2,0.233 0.7,0.77 0.025,0.033 0.217,0.272 0.22,0.27 0.228,0.262 0.233,0.258 0.238,0.252 0.248,0.242 c 0.08,0.082 0.17,0.155 0.255,0.233 l 0.182,0.154 0.154,0.163 0.97,0.996 c -0.056,0.146 -0.135,0.282 -0.23,0.404 z"
       fill="#293644"
       id="path7" />
    <path
       stroke-miterlimit="10"
       d="M 84.207,39.05"
       fill="none"
       stroke="#e2e2e2"
       stroke-width="0.157"
       id="path8" />
    <path
       d="M 85.846,39.973 C 85.819,39.88 85.63,39.863 85.563,39.906 a 3.04,3.04 0 0 0 -0.454,0.35 c -0.01,10e-4 -0.02,0.003 -0.024,0.005 -0.772,0.354 -1.423,0.97 -2.117,1.48 a 3.97,3.97 0 0 1 -0.392,0.252 c 0.38,-0.216 0.726,-0.578 1.073,-0.858 l 1.5,-1.228 c 0.09,-0.077 -0.224,-0.133 -0.277,-0.11 l -1.755,0.847 c 0.502,-0.443 0.56,-0.61 0.666,-0.845 0.205,-0.037 0.394,-0.08 0.527,-0.153 -0.05,-0.02 -0.226,-0.067 -0.39,-0.112 0.056,-0.11 -0.224,-0.133 -0.28,-0.103 -0.382,0.206 -0.8,0.28 -1.182,0.486 -0.118,0.064 0.175,0.17 0.26,0.125 0.128,-0.07 0.306,-0.112 0.5,-0.148 -0.358,0.316 -0.775,0.603 -0.874,1.076 -0.022,0.106 0.208,0.118 0.26,0.1 0.54,-0.173 1.055,-0.43 1.567,-0.7 l -1.968,1.615 c -0.03,0.027 0,0.07 0.017,0.085 0.29,0.23 0.6,0.06 0.876,-0.12 0.5,-0.322 0.947,-0.726 1.426,-1.075 l -1.75,1.69 c -0.1,0.086 0.226,0.133 0.278,0.11 0.317,-0.146 0.615,-0.322 0.902,-0.517 -0.39,0.467 -0.806,0.9 -1.26,1.318 -0.09,0.08 0.21,0.132 0.25,0.12 0.326,-0.105 0.64,-0.235 0.95,-0.38 l -1.235,1.31 c -0.073,0.086 0.226,0.168 0.298,0.092 l 0.97,-1.013 -0.553,1.043 c -0.2,0.203 -0.384,0.418 -0.532,0.677 -0.04,0.07 0.048,0.11 0.14,0.12 l -0.045,0.096 c -0.047,0.103 0.254,0.122 0.307,0.07 0.43,-0.407 0.556,-0.68 0.774,-1.215 0.48,-0.654 0.83,-1.368 1.173,-2.128 0.038,-0.084 -0.12,-0.115 -0.22,-0.092 a 9.49,9.49 0 0 0 0.373,-1.01 c 0.1,0.05 0.217,0.04 0.22,-0.03 0.007,-0.396 0.408,-0.774 0.3,-1.173 z m -0.37,0.494 c -0.035,-0.026 -0.093,-0.04 -0.147,-0.042 l 0.217,-0.195 c -0.014,0.08 -0.04,0.158 -0.07,0.236 z m -1.333,1.184 -0.025,0.05 c -0.006,0.013 -0.007,0.026 -0.004,0.038 l -0.28,0.207 0.308,-0.295 z m 0.75,-0.214 c 0.046,-0.063 -0.044,-0.103 -0.14,-0.114 l 0.32,-0.38 c -0.174,0.623 -0.418,1.208 -0.694,1.776 l -1.018,0.5 a 14.08,14.08 0 0 0 1.531,-1.783 z"
       fill="#ffffff"
       id="path9" />
    <path
       d="m 89.832,31.016 c 0.075,-0.03 0.153,-0.052 0.23,-0.07 0.156,-0.036 0.313,-0.052 0.47,-0.066 l 0.466,-0.02 0.462,0.003 0.454,0.01 0.456,-0.01 0.93,-0.002 1.847,-0.02 0.458,-0.032 0.224,-0.023 0.233,-0.03 0.93,-0.133 1.862,-0.296 1.842,-0.404 c 0.607,-0.165 1.207,-0.36 1.77,-0.62 0.445,-0.206 0.87,-0.457 1.225,-0.77 l -0.158,-0.018 -0.275,-0.018 -0.278,-0.004 -0.28,0.007 -0.282,0.017 -0.567,0.06 -0.567,0.09 -0.563,0.113 -0.56,0.127 -0.558,0.13 0.975,-0.27 0.263,-0.077 0.42,-0.13 0.556,-0.164 0.213,-0.055 0.504,-0.144 1,-0.26 0.5,-0.12 0.487,-0.124 0.96,-0.31 0.94,-0.38 0.928,-0.423 0.926,-0.447 0.936,-0.453 1.905,-0.836 0.92,-0.45 0.44,-0.253 0.212,-0.134 0.213,-0.143 0.855,-0.592 a 6.18,6.18 0 0 0 0.526,-0.429 14.87,14.87 0 0 0 -1.476,-0.214 l -1.826,-0.09 c -0.61,-0.004 -1.22,0.013 -1.825,0.042 l -1.816,0.13 -0.9,0.092 -0.895,0.113 -0.888,0.136 -0.88,0.162 -0.434,0.1 -0.437,0.096 -0.438,0.104 -0.214,0.052 -0.217,0.055 -1.727,0.45 -3.383,1.022 -1.647,0.6 -0.81,0.32 -0.8,0.33 -0.79,0.35 -0.793,0.37 -0.793,0.36 -0.782,0.362 -1.507,0.805 c -0.24,0.15 -0.476,0.308 -0.69,0.49 -0.214,0.182 -0.414,0.38 -0.56,0.625 L 87.742,29.7 a 1.07,1.07 0 0 0 -0.05,0.31 c 0.006,0.138 0.275,0.246 0.5,0.38 a 47.6,47.6 0 0 1 1.419,0.948 L 89.609,31.26 h 0.004 c 0.004,-0.025 0.015,-0.044 0.03,-0.062 l -0.017,-0.016 c 0.054,-0.065 0.13,-0.108 0.206,-0.137 z"
       opacity="0.5"
       fill="#e1eef4"
       id="path10" />
    <path
       d="m 114.705,22.564 c -0.61,-0.146 -1.227,-0.244 -1.848,-0.3 l -1.86,-0.118 -1.852,-0.002 -1.837,0.085 -0.915,0.07 -0.91,0.09 -0.907,0.115 -0.903,0.14 -0.452,0.08 -0.447,0.086 -0.55,0.115 -0.115,0.025 -0.22,0.05 -1.748,0.43 -1.727,0.48 -1.705,0.53 -1.677,0.597 -1.637,0.688 -1.57,0.793 -0.773,0.405 -0.765,0.43 -0.747,0.464 -0.713,0.518 c -0.23,0.184 -0.448,0.382 -0.645,0.6 -0.098,0.1 -0.187,0.227 -0.27,0.348 -0.083,0.121 -0.146,0.255 -0.192,0.387 l 0.012,0.005 0.012,0.005 c 0.147,-0.246 0.345,-0.444 0.56,-0.625 0.215,-0.181 0.45,-0.338 0.69,-0.49 0.482,-0.298 0.99,-0.557 1.507,-0.805 l 0.782,-0.362 0.793,-0.36 0.793,-0.37 0.79,-0.35 0.8,-0.33 0.81,-0.32 1.647,-0.6 3.383,-1.022 1.727,-0.45 0.217,-0.055 0.214,-0.052 0.438,-0.104 0.437,-0.096 0.434,-0.1 0.88,-0.162 0.888,-0.136 0.895,-0.113 0.9,-0.092 1.816,-0.13 1.825,-0.042 1.826,0.09 1.476,0.214 a 6.18,6.18 0 0 1 -0.526,0.429 l -0.855,0.592 -0.213,0.143 -0.212,0.134 -0.44,0.253 -0.92,0.45 -1.905,0.836 -0.936,0.453 -0.926,0.447 -0.928,0.423 -0.94,0.38 -0.96,0.31 -0.487,0.124 -0.5,0.12 -1,0.26 -0.504,0.144 -0.213,0.055 -0.556,0.164 -0.42,0.13 -0.263,0.077 -0.975,0.27 0.98,-0.254 0.03,-0.008 -1,0.26 0.558,-0.13 0.56,-0.127 0.563,-0.113 0.567,-0.09 0.567,-0.06 0.282,-0.017 0.28,-0.007 0.278,0.004 0.275,0.018 0.158,0.018 c -0.356,0.312 -0.78,0.563 -1.225,0.77 -0.564,0.26 -1.163,0.454 -1.77,0.62 l -1.842,0.404 -1.862,0.296 -0.93,0.133 -0.233,0.03 -0.224,0.023 -0.458,0.032 -1.847,0.02 c -0.31,-0.002 -0.62,-0.004 -0.93,0.002 l -0.456,0.01 c -0.148,0 -0.3,-0.007 -0.454,-0.01 L 91,30.86 90.534,30.88 c -0.156,0.014 -0.313,0.03 -0.47,0.066 -0.078,0.017 -0.156,0.04 -0.23,0.07 a 0.49,0.49 0 0 0 -0.206,0.137 l 0.023,0.02 c 0.124,-0.076 0.28,-0.073 0.426,-0.08 l 0.448,0.02 0.45,0.04 0.454,0.043 0.465,0.032 0.467,0.002 0.92,0.02 1.874,0.022 0.476,-0.025 0.244,-0.022 0.234,-0.027 0.938,-0.123 1.886,-0.288 1.887,-0.422 a 11.09,11.09 0 0 0 1.846,-0.676 c 0.594,-0.288 1.172,-0.657 1.622,-1.164 l 0.233,-0.263 -0.342,-0.06 -0.24,-0.035 0.152,-0.027 0.51,-0.102 1.01,-0.27 1,-0.342 0.965,-0.4 0.945,-0.435 0.934,-0.443 1.888,-0.886 0.933,-0.508 0.452,-0.286 0.22,-0.154 0.21,-0.157 0.836,-0.617 c 0.282,-0.212 0.562,-0.44 0.81,-0.696 l 0.207,-0.216 z"
       fill="#293644"
       id="path11" />
    <path
       d="m 83.637,29.012 c -0.06,-0.28 -0.187,-0.53 -0.335,-0.77 A 6.25,6.25 0 0 0 82.801,27.56 c -0.363,-0.435 -0.765,-0.842 -1.177,-1.24 l -0.627,-0.59 -0.638,-0.592 -0.635,-0.6 -0.638,-0.58 -0.656,-0.566 -0.667,-0.558 -1.377,-1.08 -2.888,-2.037 -1.498,-0.974 -0.19,-0.12 -0.186,-0.116 -0.383,-0.237 -0.384,-0.23 -0.384,-0.222 -0.785,-0.43 -0.8,-0.4 -0.813,-0.4 -0.826,-0.372 -1.68,-0.696 -1.72,-0.615 -1.76,-0.5 -1.473,-0.263 c 0.11,0.195 0.234,0.386 0.37,0.574 l 0.624,0.83 0.157,0.203 0.16,0.194 0.337,0.38 0.73,0.72 1.544,1.395 1.483,1.44 0.747,0.694 0.77,0.658 0.813,0.598 0.423,0.272 0.436,0.272 0.857,0.56 0.493,0.338 0.124,0.078 0.476,0.33 0.362,0.26 0.22,0.153 0.84,0.565 -0.488,-0.3 -0.49,-0.298 -0.5,-0.285 -0.5,-0.263 -0.52,-0.236 -0.262,-0.105 -0.264,-0.095 -0.265,-0.084 -0.267,-0.07 -0.155,-0.033 c 0.24,0.408 0.562,0.78 0.92,1.116 0.453,0.425 0.96,0.798 1.484,1.146 l 1.62,0.965 1.673,0.868 0.84,0.42 0.21,0.1 0.206,0.092 0.424,0.175 1.746,0.6 0.882,0.295 0.43,0.154 0.434,0.134 0.44,0.143 0.437,0.167 a 3.53,3.53 0 0 1 0.424,0.211 1.38,1.38 0 0 1 0.197,0.139 c 0.062,0.052 0.122,0.117 0.152,0.195 l -0.02,0.01 c 0.008,0.022 0.013,0.044 0.01,0.07 l 0.004,0.001 -0.026,0.073 1.646,-0.45 c 0.265,-0.052 0.554,-0.07 0.603,-0.2 0.049,-0.13 0.05,-0.31 0.05,-0.31 h 0.004 z"
       opacity="0.5"
       fill="#e1eef4"
       id="path12" />
    <path
       d="m 83.603,28.582 c -0.04,-0.14 -0.087,-0.28 -0.145,-0.415 A 5.3,5.3 0 0 0 83.036,27.393 L 82.523,26.677 81.96,26 l -0.59,-0.65 -0.606,-0.63 -1.24,-1.25 -1.337,-1.17 -1.402,-1.096 -1.45,-1.042 -1.487,-1 -1.523,-0.96 -0.192,-0.117 -0.1,-0.06 -0.486,-0.283 -0.396,-0.223 -0.403,-0.22 -0.812,-0.42 -0.825,-0.396 -0.836,-0.374 -0.846,-0.354 -1.716,-0.66 -1.758,-0.583 -1.8,-0.475 c -0.6,-0.133 -1.228,-0.235 -1.85,-0.29 l -0.3,-0.026 0.128,0.27 c 0.153,0.322 0.347,0.626 0.547,0.916 l 0.75,1.065 0.16,0.215 0.34,0.414 0.725,0.777 1.512,1.436 0.746,0.715 0.76,0.71 0.79,0.684 0.832,0.636 0.875,0.575 0.453,0.258 0.136,0.073 -0.24,-0.043 -0.343,-0.05 0.138,0.324 c 0.266,0.624 0.7,1.156 1.172,1.617 a 11.1,11.1 0 0 0 1.537,1.224 l 1.658,0.996 1.698,0.868 0.852,0.413 0.214,0.1 0.224,0.098 0.445,0.174 1.786,0.57 0.878,0.272 0.444,0.145 0.45,0.116 0.445,0.102 0.44,0.103 0.43,0.122 c 0.137,0.052 0.285,0.097 0.38,0.21 l 0.008,-0.003 0.02,-0.01 c -0.03,-0.08 -0.1,-0.143 -0.152,-0.195 a 1.38,1.38 0 0 0 -0.197,-0.139 c -0.137,-0.083 -0.28,-0.15 -0.424,-0.21 L 80.185,29.102 79.745,28.959 79.311,28.825 78.881,28.671 78,28.38 l -1.746,-0.6 -0.424,-0.175 -0.206,-0.092 -0.21,-0.1 -0.84,-0.42 -1.673,-0.868 -1.62,-0.965 c -0.523,-0.348 -1.03,-0.722 -1.484,-1.146 a 5.13,5.13 0 0 1 -0.919,-1.116 l 0.155,0.033 0.267,0.07 0.265,0.084 0.264,0.095 0.262,0.105 0.52,0.236 0.5,0.263 0.5,0.285 0.49,0.298 0.488,0.3 -0.84,-0.565 -0.22,-0.153 -0.362,-0.26 -0.476,-0.33 -0.124,-0.078 -0.493,-0.338 -0.857,-0.56 -0.436,-0.272 -0.423,-0.272 -0.813,-0.598 -0.77,-0.658 -0.747,-0.694 -1.483,-1.44 -1.544,-1.395 -0.73,-0.72 -0.337,-0.38 -0.16,-0.194 -0.157,-0.203 -0.624,-0.83 c -0.135,-0.188 -0.26,-0.38 -0.37,-0.574 a 14.91,14.91 0 0 1 1.473,0.263 l 1.76,0.5 1.72,0.615 1.68,0.696 0.826,0.372 0.813,0.4 0.8,0.4 0.785,0.43 0.384,0.222 0.384,0.23 0.383,0.237 0.186,0.116 0.19,0.12 1.496,0.973 2.888,2.037 1.377,1.08 0.667,0.558 0.656,0.566 0.638,0.58 0.635,0.6 0.638,0.592 0.627,0.59 1.177,1.24 c 0.18,0.22 0.354,0.442 0.5,0.682 0.146,0.24 0.273,0.5 0.335,0.77 l 0.017,-0.002 0.01,-0.001 a 1.88,1.88 0 0 0 -0.059,-0.428 z"
       fill="#293644"
       id="path13" />
  </g>
</svg>
